  0
SECTION
  2
HEADER
  9
$EXTMIN
 10
430.4550
 20
480.4990
  9
$EXTMAX
 10
575.0675
 20
523.6325
  9
$LIMMIN
 10
430.4550
 20
480.4990
  9
$LIMMAX
 10
575.0675
 20
523.6325
  0
ENDSEC
  0
SECTION
  2
TABLES
  0
TABLE
  2
LAYER
 70
    18
  0
LAYER
  2
0
 70
    64
 62
     7
  6
CONTINUOUS
  0
LAYER
  2
_BOARD
 70
    64
 62
    254
  6
CONTINUOUS
  0
LAYER
  2
_DRILL
 70
    64
 62
    251
  6
CONTINUOUS
  0
ENDTAB
  0
ENDSEC
  0
SECTION
  2
BLOCKS
  0
BLOCK
  8
0
  2
_HOLE
 70
    64
 10
0.0000
 20
0.0000
  0
CIRCLE
  8
0
 10
0.0000
 20
0.0000
 40
0.500
  0
ENDBLK
  8
0
  0
ENDSEC
  0
SECTION
  2
ENTITIES
  0
POLYLINE
  8
_BOARD
 66
     1
 62
     3
 10
0.0000
 20
0.0000
 70
     1
 40
0.0000
 41
0.0000
  0
VERTEX
  8
_BOARD
 10
434.3400
 20
483.5525
 40
0.0000
 41
0.0000
  0
VERTEX
  8
_BOARD
 10
520.3825
 20
483.5525
  0
VERTEX
  8
_BOARD
 10
520.3825
 20
483.5525
 40
0.0000
 41
0.0000
  0
VERTEX
  8
_BOARD
 10
520.3825
 20
519.7475
  0
VERTEX
  8
_BOARD
 10
520.3825
 20
519.7475
 40
0.0000
 41
0.0000
  0
VERTEX
  8
_BOARD
 10
434.3400
 20
519.7475
  0
VERTEX
  8
_BOARD
 10
434.3400
 20
519.7475
 40
0.0000
 41
0.0000
  0
VERTEX
  8
_BOARD
 10
434.3400
 20
483.5525
 40
0.0000
 41
0.0000
  0
VERTEX
  8
_BOARD
 10
434.3400
 20
483.5525
  0
SEQEND
  8
_BOARD
  0
INSERT
  8
_DRILL
  2
_HOLE
 10
480.3775
 20
511.4925
 41
1.7000
 42
1.7000
  0
INSERT
  8
_DRILL
  2
_HOLE
 10
436.8800
 20
486.0925
 41
1.7000
 42
1.7000
  0
INSERT
  8
_DRILL
  2
_HOLE
 10
436.8800
 20
517.2075
 41
1.7000
 42
1.7000
  0
INSERT
  8
_DRILL
  2
_HOLE
 10
471.8050
 20
513.3975
 41
1.0000
 42
1.0000
  0
INSERT
  8
_DRILL
  2
_HOLE
 10
471.8050
 20
510.8575
 41
1.0000
 42
1.0000
  0
INSERT
  8
_DRILL
  2
_HOLE
 10
468.8675
 20
515.6200
 41
1.2000
 42
1.2000
  0
INSERT
  8
_DRILL
  2
_HOLE
 10
458.8675
 20
515.6200
 41
1.2000
 42
1.2000
  0
INSERT
  8
_DRILL
  2
_HOLE
 10
458.8675
 20
518.1200
 41
1.2000
 42
1.2000
  0
INSERT
  8
_DRILL
  2
_HOLE
 10
468.8675
 20
518.1200
 41
1.2000
 42
1.2000
  0
INSERT
  8
_DRILL
  2
_HOLE
 10
463.8675
 20
510.6200
 41
1.2000
 42
1.2000
  0
INSERT
  8
_DRILL
  2
_HOLE
 10
458.8675
 20
510.6200
 41
1.6000
 42
1.6000
  0
INSERT
  8
_DRILL
  2
_HOLE
 10
461.3675
 20
510.6200
 41
1.6000
 42
1.6000
  0
INSERT
  8
_DRILL
  2
_HOLE
 10
466.3675
 20
510.6200
 41
1.6000
 42
1.6000
  0
INSERT
  8
_DRILL
  2
_HOLE
 10
468.8675
 20
510.6200
 41
1.6000
 42
1.6000
  0
INSERT
  8
_DRILL
  2
_HOLE
 10
463.8675
 20
515.6200
 41
1.6000
 42
1.6000
  0
INSERT
  8
_DRILL
  2
_HOLE
 10
456.1675
 20
515.6200
 41
1.2000
 42
1.2000
  0
INSERT
  8
_DRILL
  2
_HOLE
 10
446.1675
 20
515.6200
 41
1.2000
 42
1.2000
  0
INSERT
  8
_DRILL
  2
_HOLE
 10
446.1675
 20
518.1200
 41
1.2000
 42
1.2000
  0
INSERT
  8
_DRILL
  2
_HOLE
 10
456.1675
 20
518.1200
 41
1.2000
 42
1.2000
  0
INSERT
  8
_DRILL
  2
_HOLE
 10
451.1675
 20
510.6200
 41
1.2000
 42
1.2000
  0
INSERT
  8
_DRILL
  2
_HOLE
 10
446.1675
 20
510.6200
 41
1.6000
 42
1.6000
  0
INSERT
  8
_DRILL
  2
_HOLE
 10
448.6675
 20
510.6200
 41
1.6000
 42
1.6000
  0
INSERT
  8
_DRILL
  2
_HOLE
 10
453.6675
 20
510.6200
 41
1.6000
 42
1.6000
  0
INSERT
  8
_DRILL
  2
_HOLE
 10
456.1675
 20
510.6200
 41
1.6000
 42
1.6000
  0
INSERT
  8
_DRILL
  2
_HOLE
 10
451.1675
 20
515.6200
 41
1.6000
 42
1.6000
  0
INSERT
  8
_DRILL
  2
_HOLE
 10
479.4250
 20
515.3025
 41
0.8890
 42
0.8890
  0
INSERT
  8
_DRILL
  2
_HOLE
 10
476.8850
 20
515.3025
 41
0.8890
 42
0.8890
  0
INSERT
  8
_DRILL
  2
_HOLE
 10
474.3850
 20
515.3025
 41
0.8890
 42
0.8890
  0
INSERT
  8
_DRILL
  2
_HOLE
 10
466.7250
 20
486.0925
 41
1.0000
 42
1.0000
  0
INSERT
  8
_DRILL
  2
_HOLE
 10
466.7250
 20
488.6325
 41
1.0000
 42
1.0000
  0
INSERT
  8
_DRILL
  2
_HOLE
 10
464.1850
 20
486.0925
 41
1.0000
 42
1.0000
  0
INSERT
  8
_DRILL
  2
_HOLE
 10
464.1850
 20
488.6325
 41
1.0000
 42
1.0000
  0
INSERT
  8
_DRILL
  2
_HOLE
 10
461.6450
 20
486.0925
 41
1.0000
 42
1.0000
  0
INSERT
  8
_DRILL
  2
_HOLE
 10
461.6450
 20
488.6325
 41
1.0000
 42
1.0000
  0
INSERT
  8
_DRILL
  2
_HOLE
 10
459.1050
 20
486.0925
 41
1.0000
 42
1.0000
  0
INSERT
  8
_DRILL
  2
_HOLE
 10
459.1050
 20
488.6325
 41
1.0000
 42
1.0000
  0
INSERT
  8
_DRILL
  2
_HOLE
 10
456.5650
 20
486.0925
 41
1.0000
 42
1.0000
  0
INSERT
  8
_DRILL
  2
_HOLE
 10
456.5650
 20
488.6325
 41
1.0000
 42
1.0000
  0
INSERT
  8
_DRILL
  2
_HOLE
 10
454.0250
 20
486.0925
 41
1.0000
 42
1.0000
  0
INSERT
  8
_DRILL
  2
_HOLE
 10
454.0250
 20
488.6325
 41
1.0000
 42
1.0000
  0
INSERT
  8
_DRILL
  2
_HOLE
 10
510.5400
 20
487.3625
 41
0.8890
 42
0.8890
  0
INSERT
  8
_DRILL
  2
_HOLE
 10
513.0800
 20
487.3625
 41
0.8890
 42
0.8890
  0
INSERT
  8
_DRILL
  2
_HOLE
 10
515.5800
 20
487.3625
 41
0.8890
 42
0.8890
  0
INSERT
  8
_DRILL
  2
_HOLE
 10
513.9850
 20
517.5250
 41
0.8000
 42
0.8000
  0
INSERT
  8
_DRILL
  2
_HOLE
 10
515.9850
 20
517.5250
 41
0.8000
 42
0.8000
  0
INSERT
  8
_DRILL
  2
_HOLE
 10
486.7275
 20
517.7550
 41
1.0000
 42
1.0000
  0
INSERT
  8
_DRILL
  2
_HOLE
 10
486.7275
 20
514.7550
 41
1.0000
 42
1.0000
  0
INSERT
  8
_DRILL
  2
_HOLE
 10
440.6425
 20
517.5250
 41
0.8000
 42
0.8000
  0
INSERT
  8
_DRILL
  2
_HOLE
 10
442.6425
 20
517.5250
 41
0.8000
 42
0.8000
  0
INSERT
  8
_DRILL
  2
_HOLE
 10
440.3725
 20
506.7300
 41
1.0000
 42
1.0000
  0
INSERT
  8
_DRILL
  2
_HOLE
 10
442.9125
 20
506.7300
 41
1.0000
 42
1.0000
  0
INSERT
  8
_DRILL
  2
_HOLE
 10
440.3725
 20
504.1900
 41
1.0000
 42
1.0000
  0
INSERT
  8
_DRILL
  2
_HOLE
 10
442.9125
 20
504.1900
 41
1.0000
 42
1.0000
  0
INSERT
  8
_DRILL
  2
_HOLE
 10
440.3725
 20
501.6500
 41
1.0000
 42
1.0000
  0
INSERT
  8
_DRILL
  2
_HOLE
 10
442.9125
 20
501.6500
 41
1.0000
 42
1.0000
  0
INSERT
  8
_DRILL
  2
_HOLE
 10
440.3725
 20
499.1100
 41
1.0000
 42
1.0000
  0
INSERT
  8
_DRILL
  2
_HOLE
 10
442.9125
 20
499.1100
 41
1.0000
 42
1.0000
  0
INSERT
  8
_DRILL
  2
_HOLE
 10
440.3725
 20
496.5700
 41
1.0000
 42
1.0000
  0
INSERT
  8
_DRILL
  2
_HOLE
 10
442.9125
 20
496.5700
 41
1.0000
 42
1.0000
  0
INSERT
  8
_DRILL
  2
_HOLE
 10
454.0750
 20
499.1500
 41
0.8890
 42
0.8890
  0
INSERT
  8
_DRILL
  2
_HOLE
 10
454.0750
 20
504.1500
 41
0.8890
 42
0.8890
  0
INSERT
  8
_DRILL
  2
_HOLE
 10
466.6750
 20
504.1500
 41
0.8890
 42
0.8890
  0
INSERT
  8
_DRILL
  2
_HOLE
 10
466.6750
 20
499.1500
 41
0.8890
 42
0.8890
  0
INSERT
  8
_DRILL
  2
_HOLE
 10
489.9025
 20
506.7300
 41
0.5000
 42
0.5000
  0
INSERT
  8
_DRILL
  2
_HOLE
 10
467.3600
 20
490.5375
 41
0.5000
 42
0.5000
  0
INSERT
  8
_DRILL
  2
_HOLE
 10
486.4100
 20
507.0475
 41
0.5000
 42
0.5000
  0
INSERT
  8
_DRILL
  2
_HOLE
 10
471.1700
 20
489.5850
 41
0.5000
 42
0.5000
  0
INSERT
  8
_DRILL
  2
_HOLE
 10
503.8725
 20
508.6350
 41
0.5000
 42
0.5000
  0
INSERT
  8
_DRILL
  2
_HOLE
 10
503.8725
 20
500.6975
 41
0.5000
 42
0.5000
  0
INSERT
  8
_DRILL
  2
_HOLE
 10
512.4450
 20
513.7150
 41
0.5000
 42
0.5000
  0
INSERT
  8
_DRILL
  2
_HOLE
 10
500.0625
 20
500.6975
 41
0.5000
 42
0.5000
  0
INSERT
  8
_DRILL
  2
_HOLE
 10
441.6425
 20
488.6325
 41
0.5000
 42
0.5000
  0
INSERT
  8
_DRILL
  2
_HOLE
 10
447.3575
 20
488.6325
 41
0.5000
 42
0.5000
  0
INSERT
  8
_DRILL
  2
_HOLE
 10
474.6625
 20
495.9350
 41
0.5000
 42
0.5000
  0
INSERT
  8
_DRILL
  2
_HOLE
 10
492.1250
 20
518.1600
 41
0.5000
 42
0.5000
  0
INSERT
  8
_DRILL
  2
_HOLE
 10
475.6150
 20
499.1100
 41
0.5000
 42
0.5000
  0
INSERT
  8
_DRILL
  2
_HOLE
 10
494.0300
 20
507.0475
 41
0.5000
 42
0.5000
  0
INSERT
  8
_DRILL
  2
_HOLE
 10
441.6425
 20
494.3475
 41
0.5000
 42
0.5000
  0
INSERT
  8
_DRILL
  2
_HOLE
 10
438.1500
 20
487.6800
 41
0.5000
 42
0.5000
  0
INSERT
  8
_DRILL
  2
_HOLE
 10
481.9650
 20
509.2700
 41
0.5000
 42
0.5000
  0
INSERT
  8
_DRILL
  2
_HOLE
 10
503.8725
 20
495.6175
 41
0.5000
 42
0.5000
  0
INSERT
  8
_DRILL
  2
_HOLE
 10
461.3275
 20
490.5375
 41
0.5000
 42
0.5000
  0
INSERT
  8
_DRILL
  2
_HOLE
 10
478.4725
 20
499.4275
 41
0.5000
 42
0.5000
  0
INSERT
  8
_DRILL
  2
_HOLE
 10
473.3925
 20
506.7300
 41
0.5000
 42
0.5000
  0
INSERT
  8
_DRILL
  2
_HOLE
 10
445.4525
 20
503.2375
 41
0.5000
 42
0.5000
  0
INSERT
  8
_DRILL
  2
_HOLE
 10
476.8850
 20
518.4775
 41
0.5000
 42
0.5000
  0
INSERT
  8
_DRILL
  2
_HOLE
 10
448.6275
 20
515.6200
 41
0.5000
 42
0.5000
  0
INSERT
  8
_DRILL
  2
_HOLE
 10
451.1675
 20
508.9525
 41
0.5000
 42
0.5000
  0
INSERT
  8
_DRILL
  2
_HOLE
 10
443.2300
 20
510.2225
 41
0.5000
 42
0.5000
  0
INSERT
  8
_DRILL
  2
_HOLE
 10
438.7850
 20
514.3500
 41
0.5000
 42
0.5000
  0
ENDSEC
  0
EOF
